<?xml version="1.0" encoding="UTF-8"?>
<svg version="1.1" xmlns="http://www.w3.org/2000/svg" width="1024" height="1024">
<path d="M0 0 C337.92 0 675.84 0 1024 0 C1024 337.92 1024 675.84 1024 1024 C686.08 1024 348.16 1024 0 1024 C0 686.08 0 348.16 0 0 Z " fill="#FEFEFC" transform="translate(0,0)"/>
<path d="M0 0 C8.65883215 -0.04659831 17.3176203 -0.08200759 25.97655106 -0.10362434 C29.99841023 -0.11400585 34.02018282 -0.12806042 38.04199219 -0.15087891 C41.93236883 -0.17281039 45.82266286 -0.18461084 49.71309662 -0.18975449 C51.18804981 -0.19341418 52.66299912 -0.20055912 54.13791656 -0.21146011 C65.85885287 -0.2945441 77.43958977 -0.2875803 87.8125 5.75 C88.44994141 6.10852051 89.08738281 6.46704102 89.74414062 6.83642578 C100.38542923 12.95817429 108.38509166 21.6189759 112.34765625 33.47265625 C115.10314999 48.37212239 113.95570156 63.92991887 106 77 C98.474727 87.46697062 87.3492602 94.31577835 74.9206543 97.53930664 C70.92646806 98.16933501 67.01739274 98.12284233 62.98046875 98.09765625 C61.69261223 98.09553383 61.69261223 98.09553383 60.3787384 98.09336853 C57.64828951 98.08779057 54.91792393 98.07524214 52.1875 98.0625 C50.3313814 98.05748215 48.4752615 98.05291974 46.61914062 98.04882812 C42.0793952 98.03782836 37.5397117 98.02057893 33 98 C33.00523682 99.29736084 33.01047363 100.59472168 33.01586914 101.93139648 C33.03391469 106.72647415 33.04543037 111.5215488 33.05493164 116.31665039 C33.05997288 118.39543156 33.06680574 120.47420916 33.07543945 122.55297852 C33.08751422 125.53402586 33.09323024 128.51502649 33.09765625 131.49609375 C33.10281754 132.43150497 33.10797882 133.3669162 33.11329651 134.33067322 C33.11337204 135.19149002 33.11344757 136.05230682 33.11352539 136.93920898 C33.115746 137.70087875 33.11796661 138.46254852 33.12025452 139.24729919 C33 141 33 141 32 142 C29.72052208 142.1002093 27.43792865 142.13081303 25.15625 142.1328125 C24.12981384 142.13424759 24.12981384 142.13424759 23.0826416 142.13571167 C21.63338123 142.1363933 20.18411782 142.13454023 18.73486328 142.13037109 C16.50937072 142.12502252 14.28407999 142.1303166 12.05859375 142.13671875 C10.65364539 142.13605797 9.24869715 142.1347768 7.84375 142.1328125 C6.55662109 142.13168457 5.26949219 142.13055664 3.94335938 142.12939453 C1 142 1 142 0 141 C-0.09643778 139.17772313 -0.12187371 137.3516664 -0.12025452 135.52684021 C-0.12231651 133.74518463 -0.12231651 133.74518463 -0.12442017 131.92753601 C-0.12082489 130.61267715 -0.11722961 129.2978183 -0.11352539 127.94311523 C-0.11324352 126.55382286 -0.11340125 125.16453033 -0.1139679 123.77523804 C-0.11425588 119.99234711 -0.10835901 116.20948762 -0.10139394 112.42660403 C-0.09516055 108.47744323 -0.09455661 104.52828178 -0.09336853 100.57911682 C-0.09025517 93.09574925 -0.08204172 85.61239621 -0.07201904 78.12903506 C-0.06085805 69.61164267 -0.05534749 61.0942496 -0.05032361 52.57685173 C-0.03985911 35.05122606 -0.02225958 17.52561457 0 0 Z " fill="#BC6015" transform="translate(158,405)"/>
<path d="M0 0 C4.67464889 2.34790057 9.07858501 4.86358313 13.453125 7.734375 C13.453125 4.434375 13.453125 1.134375 13.453125 -2.265625 C22.363125 -2.265625 31.273125 -2.265625 40.453125 -2.265625 C40.453125 32.054375 40.453125 66.374375 40.453125 101.734375 C30.883125 101.734375 21.313125 101.734375 11.453125 101.734375 C11.453125 98.764375 11.453125 95.794375 11.453125 92.734375 C10.751875 93.27707031 10.050625 93.81976562 9.328125 94.37890625 C8.379375 95.09433594 7.430625 95.80976562 6.453125 96.546875 C5.525 97.25457031 4.596875 97.96226562 3.640625 98.69140625 C-4.43519744 103.86745421 -11.38732991 104.25516957 -20.796875 104.234375 C-22.52357422 104.27691406 -22.52357422 104.27691406 -24.28515625 104.3203125 C-37.23886404 104.34952041 -47.23683415 99.5778175 -56.56640625 90.84375 C-67.80359894 79.24129483 -71.9045478 65.34061628 -71.921875 49.546875 C-71.94636719 48.39123047 -71.97085937 47.23558594 -71.99609375 46.04492188 C-72.0420441 32.40532539 -67.53082324 19.87303979 -58.5859375 9.44921875 C-42.85900409 -5.72230252 -19.70473162 -8.85457597 0 0 Z " fill="#BD6116" transform="translate(349.546875,445.265625)"/>
<path d="M0 0 C4.35166722 0.42603735 6.47216304 3.27223725 9.1875 6.375 C9.67017334 6.91374756 10.15284668 7.45249512 10.65014648 8.00756836 C14.48663703 12.32417298 18.1331614 16.78665507 21.75390625 21.28515625 C24.0883059 24.10673495 26.51990598 26.80590712 29 29.5 C32.27418423 33.05670244 35.40642433 36.67161811 38.4375 40.4375 C42.56456776 45.55418437 46.9395701 50.37237556 51.421875 55.17578125 C59 63.47727273 59 63.47727273 59 66 C45.47 66 31.94 66 18 66 C17.67 71.61 17.34 77.22 17 83 C16.58510033 87.20148397 16.14800776 91.37604822 15.625 95.5625 C15.42438965 97.17306274 15.42438965 97.17306274 15.21972656 98.81616211 C13.05066685 115.78203683 9.06430402 131.67431667 4 148 C3.69433105 148.99628418 3.38866211 149.99256836 3.07373047 151.01904297 C-6.37427259 181.54605657 -19.48443822 212.18844452 -40 237 C-40.66515625 237.81210937 -41.3303125 238.62421875 -42.015625 239.4609375 C-47.81245069 246.23780207 -55.34586188 254.11528729 -64 257 C-62.67136911 254.18055793 -61.14721739 251.7633115 -59.3125 249.25 C-51.21975017 237.16010122 -46.99705793 222.8532456 -43 209 C-42.78633789 208.26507324 -42.57267578 207.53014648 -42.35253906 206.77294922 C-29.38442158 161.54638662 -25.00954272 114.8427824 -24 68 C-36.21 68 -48.42 68 -61 68 C-61 67.34 -61 66.68 -61 66 C-59.7625 65.505 -59.7625 65.505 -58.5 65 C-50.83609587 61.1231773 -45.53911173 53.33172405 -40.28515625 46.7890625 C-38.09539199 44.11642715 -35.82888802 41.55165122 -33.5 39 C-30.42346328 35.62539052 -27.48881783 32.18184136 -24.625 28.625 C-20.95117893 24.08072656 -17.08883381 19.78125636 -13.1105957 15.50732422 C-8.50295748 10.52719517 -4.22965983 5.30535109 0 0 Z " fill="#BD6015" transform="translate(835,339)"/>
<path d="M0 0 C0.79921875 0.350625 1.5984375 0.70125 2.421875 1.0625 C15.12415187 7.36983748 24.96985922 18.88983422 30 32 C32.56583036 41.29775897 33.91977217 51.3777681 33 61 C31.2917059 62.7082941 29.13995623 62.11971926 26.86213684 62.12442017 C26.12702377 62.12082489 25.39191071 62.11722961 24.63452148 62.11352539 C23.86384338 62.11367142 23.09316528 62.11381744 22.2991333 62.1139679 C19.73975861 62.1132686 17.1804558 62.10547545 14.62109375 62.09765625 C12.85132385 62.09579213 11.08155344 62.0943682 9.31178284 62.09336853 C4.64448634 62.08954288 -0.02277923 62.0797122 -4.69006348 62.06866455 C-9.44897035 62.05845144 -14.20788221 62.05387113 -18.96679688 62.04882812 C-28.31121153 62.03808997 -37.6556032 62.02101299 -47 62 C-46.21879681 63.28756301 -45.43268913 64.57215114 -44.64453125 65.85546875 C-43.98868042 66.92897583 -43.98868042 66.92897583 -43.31958008 68.02416992 C-39.86224454 73.20089823 -34.82237768 75.33673758 -29 77 C-26.1095294 77.39602355 -23.28900258 77.43041382 -20.375 77.375 C-19.59012207 77.36484863 -18.80524414 77.35469727 -17.99658203 77.34423828 C-6.73544725 77.04903682 3.37589447 74.14301614 13.76025391 69.98193359 C16.67409266 68.81742538 18.82838578 68 22 68 C22.23331804 71.87397689 22.3747313 75.74614424 22.5 79.625 C22.56703125 80.71941406 22.6340625 81.81382812 22.703125 82.94140625 C22.89487313 90.85101667 22.89487313 90.85101667 20.44726562 93.99365234 C18.37674002 95.60992999 16.3456363 96.82254009 14 98 C13.39607422 98.33306152 12.79214844 98.66612305 12.16992188 99.00927734 C1.91645271 104.17859278 -9.1307973 104.58786378 -20.375 104.625 C-21.39944214 104.6354837 -21.39944214 104.6354837 -22.44458008 104.6461792 C-39.07914274 104.74052359 -53.55797883 99.63186436 -65.8125 88.328125 C-77.88369512 75.71803724 -80.71152764 60.19825212 -80.375 43.4375 C-80.04159401 36.51218136 -78.35196516 31.11839717 -75 25 C-74.48050781 24.03964844 -73.96101562 23.07929688 -73.42578125 22.08984375 C-65.76698861 9.11095739 -55.6297629 1.35263619 -41.296875 -3.16796875 C-28.28279659 -6.16616468 -12.19137992 -5.5481729 0 0 Z " fill="#BD6116" transform="translate(673,445)"/>
<path d="M0 0 C2.8359375 1.4375 2.8359375 1.4375 5 4 C5.61681001 7.76643712 5.46936265 11.44668408 5.3125 15.25 C5.28994141 16.28125 5.26738281 17.3125 5.24414062 18.375 C5.18527163 20.91814065 5.10310065 23.45833113 5 26 C2.64059256 25.43646035 0.44671072 24.79831959 -1.83984375 23.96484375 C-7.20381453 22.32714192 -12.45523019 22.34470902 -18 23 C-21.43597292 24.51917849 -21.43597292 24.51917849 -23 28 C-23.42946419 30.0563776 -23.79563561 32.12653415 -24.11328125 34.203125 C-24.28255127 35.28754883 -24.45182129 36.37197266 -24.6262207 37.48925781 C-24.74956787 38.31780273 -24.87291504 39.14634766 -25 40 C-24.21761963 39.99476318 -23.43523926 39.98952637 -22.62915039 39.98413086 C-19.10694167 39.96342894 -15.5847457 39.95036162 -12.0625 39.9375 C-10.83080078 39.92912109 -9.59910156 39.92074219 -8.33007812 39.91210938 C-7.16025391 39.90888672 -5.99042969 39.90566406 -4.78515625 39.90234375 C-3.15912476 39.89448853 -3.15912476 39.89448853 -1.50024414 39.88647461 C1 40 1 40 2 41 C2.09959621 42.84159023 2.13080411 44.68696967 2.1328125 46.53125 C2.13410156 47.65144531 2.13539063 48.77164063 2.13671875 49.92578125 C2.13285156 51.10527344 2.12898437 52.28476562 2.125 53.5 C2.12886719 54.67949219 2.13273438 55.85898437 2.13671875 57.07421875 C2.13542969 58.19441406 2.13414062 59.31460938 2.1328125 60.46875 C2.13168457 61.50451172 2.13055664 62.54027344 2.12939453 63.60742188 C2 66 2 66 1 67 C-0.85369611 67.08737645 -2.71067541 67.10698153 -4.56640625 67.09765625 C-5.69111328 67.09443359 -6.81582031 67.09121094 -7.97460938 67.08789062 C-9.15861328 67.07951172 -10.34261719 67.07113281 -11.5625 67.0625 C-12.75037109 67.05798828 -13.93824219 67.05347656 -15.16210938 67.04882812 C-18.10812226 67.03699675 -21.05403681 67.02051287 -24 67 C-23.99777939 67.8872728 -23.99555878 68.77454559 -23.99327087 69.68870544 C-23.97327039 78.03244657 -23.95802711 86.37617969 -23.94818783 94.71993923 C-23.94295939 99.00999915 -23.93586247 103.30003933 -23.92456055 107.59008789 C-23.91373025 111.726794 -23.90772286 115.86348108 -23.90512276 120.00020027 C-23.90326876 121.58192304 -23.89964864 123.16364471 -23.89426994 124.74535942 C-23.8870576 126.95322838 -23.88600914 129.16101773 -23.88647461 131.36889648 C-23.884254 132.62798325 -23.88203339 133.88707001 -23.87974548 135.18431091 C-24 138 -24 138 -25 139 C-27.27947792 139.1002093 -29.56207135 139.13081303 -31.84375 139.1328125 C-32.87018616 139.13424759 -32.87018616 139.13424759 -33.9173584 139.13571167 C-35.36661877 139.1363933 -36.81588218 139.13454023 -38.26513672 139.13037109 C-40.49062928 139.12502252 -42.71592001 139.1303166 -44.94140625 139.13671875 C-46.34635461 139.13605797 -47.75130285 139.1347768 -49.15625 139.1328125 C-50.44337891 139.13168457 -51.73050781 139.13055664 -53.05664062 139.12939453 C-56 139 -56 139 -57 138 C-57.09429342 135.82194281 -57.11742538 133.6407872 -57.11352539 131.46069336 C-57.11367142 130.77779739 -57.11381744 130.09490143 -57.1139679 129.39131165 C-57.11326876 127.12412386 -57.1054764 124.85701726 -57.09765625 122.58984375 C-57.09579207 121.02185613 -57.09436817 119.45386793 -57.09336853 117.88587952 C-57.08954334 113.75123497 -57.07971306 109.61662534 -57.06866455 105.48199463 C-57.05845044 101.26599602 -57.05387091 97.04999178 -57.04882812 92.83398438 C-57.03809078 84.55597174 -57.02049399 76.27799423 -57 68 C-61.62 68 -66.24 68 -71 68 C-71 58.76 -71 49.52 -71 40 C-64.565 39.505 -64.565 39.505 -58 39 C-57.99742187 37.83984375 -57.99484375 36.6796875 -57.9921875 35.484375 C-57.77486385 23.56609015 -56.02259031 14.23684186 -47.75 5.0625 C-35.0616792 -6.52125716 -15.09825023 -7.07935322 0 0 Z " fill="#BD6015" transform="translate(675,575)"/>
<path d="M0 0 C1 3 1 3 0.13549805 5.02124023 C-0.31784912 5.77606689 -0.77119629 6.53089355 -1.23828125 7.30859375 C-1.72876953 8.13810547 -2.21925781 8.96761719 -2.72460938 9.82226562 C-3.51061523 11.11680664 -3.51061523 11.11680664 -4.3125 12.4375 C-5.33027166 14.14402783 -6.34722836 15.85104202 -7.36328125 17.55859375 C-7.82001221 18.31454834 -8.27674316 19.07050293 -8.74731445 19.84936523 C-9.92104536 21.86444914 -10.98281823 23.90230419 -12 26 C-15.25272132 25.33602707 -17.83186746 24.12844055 -20.75 22.5625 C-29.61185902 18.09932209 -39.81062133 15.6686027 -49.58984375 18.83984375 C-56.13847116 22.16453151 -62.36441518 28.02126836 -65 35 C-66.0268732 45.25679161 -65.31679855 53.60400181 -58.75 61.8125 C-51.17476779 67.8382529 -43.90617493 69.47645497 -34.18164062 68.43896484 C-28.79382411 67.35488985 -24.05387767 64.55051479 -19.328125 61.84765625 C-16.65403179 60.36309511 -14.89378805 59.62094226 -12 59 C-9.87410102 61.93685036 -7.74943696 64.87459193 -5.625 67.8125 C-5.02171875 68.64587891 -4.4184375 69.47925781 -3.796875 70.33789062 C-3.21679688 71.14033203 -2.63671875 71.94277344 -2.0390625 72.76953125 C-1.50490723 73.50792236 -0.97075195 74.24631348 -0.42041016 75.00708008 C3.00445843 79.81237438 3.00445843 79.81237438 2.953125 81.97265625 C-0.40251364 89.11026467 -13.27437782 92.49615454 -20.1875 95.0546875 C-33.84179164 99.64404663 -52.91739241 99.15866486 -66 93 C-67.09054687 92.50242187 -68.18109375 92.00484375 -69.3046875 91.4921875 C-83.10329642 84.64068422 -92.91558527 75.18368796 -97.875 60.5 C-101.89248867 47.40447259 -101.16736864 34.689702 -96 22 C-95.63777344 21.10667969 -95.27554687 20.21335937 -94.90234375 19.29296875 C-88.36179288 4.85941412 -76.42865085 -2.85710926 -62.296875 -8.8359375 C-42.46302399 -15.83888489 -17.38833448 -11.11924653 0 0 Z " fill="#BD6015" transform="translate(582,452)"/>
<path d="M0 0 C0.68429077 -0.00095673 1.36858154 -0.00191345 2.0736084 -0.00289917 C3.52286877 -0.0035808 4.97213218 -0.00172773 6.42138672 0.00244141 C8.64687928 0.00778998 10.87217001 0.0024959 13.09765625 -0.00390625 C14.50260461 -0.00324547 15.90755285 -0.0019643 17.3125 0 C18.59962891 0.00112793 19.88675781 0.00225586 21.21289062 0.00341797 C24.15625 0.1328125 24.15625 0.1328125 25.15625 1.1328125 C25.25179399 2.56227721 25.27813438 3.99643915 25.27650452 5.42909241 C25.27787918 6.35602402 25.27925385 7.28295563 25.28067017 8.23797607 C25.27527725 9.77545502 25.27527725 9.77545502 25.26977539 11.34399414 C25.26992142 12.41703293 25.27006744 13.49007172 25.2702179 14.59562683 C25.26951824 18.16142766 25.26172338 21.72717699 25.25390625 25.29296875 C25.25204226 27.75776643 25.25061827 30.22256449 25.24961853 32.68736267 C25.24579187 39.18935155 25.23596032 45.69131825 25.22491455 52.19329834 C25.21227947 59.98676183 25.2082989 67.78023673 25.20246124 75.57370758 C25.19274865 87.426758 25.17359311 99.27975972 25.15625 111.1328125 C41.65625 111.1328125 58.15625 111.1328125 75.15625 111.1328125 C75.176875 115.5671875 75.1975 120.0015625 75.21875 124.5703125 C75.227854 125.97079834 75.23695801 127.37128418 75.24633789 128.81420898 C75.24883545 129.90805908 75.25133301 131.00190918 75.25390625 132.12890625 C75.25914307 133.25482178 75.26437988 134.3807373 75.26977539 135.54077148 C75.15625 138.1328125 75.15625 138.1328125 74.15625 139.1328125 C71.60035112 139.22787302 69.07157028 139.25838011 66.51538086 139.24633789 C65.31547264 139.24655693 65.31547264 139.24655693 64.09132385 139.2467804 C61.43455335 139.24608105 58.77785207 139.23828768 56.12109375 139.23046875 C54.28406309 139.22860465 52.44703194 139.22718071 50.61000061 139.22618103 C45.76515338 139.22235525 40.92033592 139.21252446 36.07550049 139.20147705 C31.13562422 139.19126422 26.19574315 139.18668369 21.25585938 139.18164062 C11.55597647 139.17090224 1.85611571 139.1538251 -7.84375 139.1328125 C-7.86707821 121.15712017 -7.88472879 103.18143176 -7.89556217 85.20572758 C-7.9007253 76.85988421 -7.90776831 68.51405023 -7.91918945 60.16821289 C-7.92913579 52.8966248 -7.93560331 45.62504351 -7.93783849 38.35344881 C-7.93914569 34.50081729 -7.94223208 30.64820522 -7.94948006 26.79557991 C-7.95623948 23.17348578 -7.95836712 19.55141922 -7.95685768 15.92931938 C-7.95726637 13.95784022 -7.96266197 11.98636409 -7.96817017 10.01489258 C-7.9667955 8.85236465 -7.96542084 7.68983673 -7.96400452 6.49208069 C-7.96492631 5.47534303 -7.9658481 4.45860537 -7.96679783 3.41105747 C-7.70723288 -1.39481789 -4.03375493 0.00353484 0 0 Z " fill="#BD6217" transform="translate(471.84375,574.8671875)"/>
<path d="M0 0 C1.5631897 0.00785522 1.5631897 0.00785522 3.15795898 0.01586914 C4.17059814 0.0183667 5.1832373 0.02086426 6.2265625 0.0234375 C7.52263428 0.0325415 8.81870605 0.04164551 10.15405273 0.05102539 C14.25842773 0.07165039 18.36280273 0.09227539 22.59155273 0.11352539 C22.59155273 9.68352539 22.59155273 19.25352539 22.59155273 29.11352539 C29.78678056 29.07393879 29.78678056 29.07393879 36.98193359 29.0234375 C37.87275635 29.02093994 38.7635791 29.01844238 39.68139648 29.01586914 C41.05606079 29.00801392 41.05606079 29.00801392 42.45849609 29 C44.59155273 29.11352539 44.59155273 29.11352539 45.59155273 30.11352539 C45.74980532 32.11134666 45.84274445 34.11441373 45.90795898 36.11743164 C45.94985352 37.33237305 45.99174805 38.54731445 46.03491211 39.79907227 C46.07422852 41.0784668 46.11354492 42.35786133 46.15405273 43.67602539 C46.19723633 44.95928711 46.24041992 46.24254883 46.28491211 47.56469727 C46.39139993 50.74749984 46.49201694 53.93049782 46.59155273 57.11352539 C39.00155273 57.44352539 31.41155273 57.77352539 23.59155273 58.11352539 C23.52235664 62.95212615 23.46272439 67.78898265 23.42675781 72.62768555 C23.41175137 74.27064865 23.39133962 75.91357225 23.36523438 77.55639648 C23.32848915 79.92970581 23.31174501 82.30248165 23.29858398 84.67602539 C23.28310013 85.40031738 23.26761627 86.12460937 23.25166321 86.87084961 C23.24992884 92.229669 24.4016633 96.20998328 26.59155273 101.11352539 C28.40536773 103.35133332 28.40536773 103.35133332 30.98217773 103.34399414 C31.92577148 103.32981445 32.86936523 103.31563477 33.84155273 103.30102539 C34.77483398 103.29458008 35.70811523 103.28813477 36.66967773 103.28149414 C39.70266602 103.10713786 42.60610316 102.66556858 45.59155273 102.11352539 C45.70752927 105.88410086 45.7787267 109.65421932 45.84155273 113.42602539 C45.87506836 114.49788086 45.90858398 115.56973633 45.94311523 116.67407227 C45.96245117 118.21611328 45.96245117 118.21611328 45.98217773 119.78930664 C46.01359863 121.21110229 46.01359863 121.21110229 46.0456543 122.66162109 C45.59155273 125.11352539 45.59155273 125.11352539 43.72265625 126.88696289 C33.88541366 132.54881497 20.5361398 132.30846064 9.65405273 130.48852539 C3.8633697 128.89636019 -0.63435586 125.80618189 -3.94750977 120.77758789 C-8.6324602 111.87344233 -9.70522838 103.74709498 -9.60375977 93.83227539 C-9.60092987 92.77818481 -9.59809998 91.72409424 -9.59518433 90.63806152 C-9.58405713 87.29643029 -9.5589663 83.95507458 -9.53344727 80.61352539 C-9.52340783 78.33748762 -9.51428367 76.06144561 -9.50610352 73.78540039 C-9.48414222 68.22800379 -9.44966401 62.67081119 -9.40844727 57.11352539 C-14.02844727 57.11352539 -18.64844727 57.11352539 -23.40844727 57.11352539 C-23.40844727 47.87352539 -23.40844727 38.63352539 -23.40844727 29.11352539 C-20.43844727 28.12352539 -17.46844727 27.13352539 -14.40844727 26.11352539 C-7.57603569 21.49703108 -5.91014002 10.78786579 -4.02172852 3.26586914 C-3.17740726 0.30267797 -3.12774747 0.14743057 0 0 Z " fill="#BD6015" transform="translate(708.408447265625,585.886474609375)"/>
<path d="M0 0 C11.55 0 23.1 0 35 0 C35.02254618 18.49723049 35.04097868 36.99444991 35.05181217 55.49169064 C35.05697534 64.07967049 35.06401844 72.66764123 35.07543945 81.25561523 C35.08538565 88.73815417 35.09185327 96.22068651 35.09408849 103.70323187 C35.09539571 107.66764586 35.09848226 111.63204095 35.10573006 115.5964489 C35.11248926 119.32360213 35.11461717 123.05072857 35.11310768 126.77788734 C35.11338406 128.14975505 35.11538978 129.5216236 35.11920547 130.89348602 C35.12414108 132.75860963 35.12239794 134.62374744 35.12025452 136.48887634 C35.12117631 137.53511138 35.1220981 138.58134642 35.12304783 139.65928555 C35 142 35 142 34 143 C22.78 143 11.56 143 0 143 C0 95.81 0 48.62 0 0 Z " fill="#BE6318" transform="translate(718,405)"/>
<path d="M0 0 C0.88816406 -0.00128906 1.77632813 -0.00257813 2.69140625 -0.00390625 C3.61566406 -0.00003906 4.53992188 0.00382812 5.4921875 0.0078125 C6.42417969 0.00394531 7.35617187 0.00007813 8.31640625 -0.00390625 C9.20199219 -0.00261719 10.08757812 -0.00132812 11 0 C12.22033936 0.00169189 12.22033936 0.00169189 13.46533203 0.00341797 C15.3671875 0.1328125 15.3671875 0.1328125 16.3671875 1.1328125 C16.45502292 3.35136514 16.47413359 5.57269746 16.46484375 7.79296875 C16.4634288 8.45743515 16.46201385 9.12190155 16.46055603 9.8065033 C16.45494268 11.93615149 16.44238804 14.06569589 16.4296875 16.1953125 C16.42467421 17.63606619 16.42011101 19.07682153 16.41601562 20.51757812 C16.40496895 24.05602352 16.38769542 27.59440789 16.3671875 31.1328125 C15.7680957 30.97272705 15.16900391 30.8126416 14.55175781 30.64770508 C7.51637636 28.98949995 -0.6460492 29.00349756 -6.92578125 32.82421875 C-13.93380075 38.19649914 -16.51128229 44.67992309 -18.6328125 53.1328125 C-19.16082857 57.39722339 -19.2373801 61.60463722 -19.2421875 65.8984375 C-19.25872375 67.05784851 -19.27526001 68.21725952 -19.29229736 69.4118042 C-19.34038975 73.06886293 -19.36206252 76.72550705 -19.3828125 80.3828125 C-19.4110045 82.88153085 -19.44093637 85.3802302 -19.47265625 87.87890625 C-19.54937262 93.96372535 -19.59025632 100.04727812 -19.6328125 106.1328125 C-31.1828125 106.1328125 -42.7328125 106.1328125 -54.6328125 106.1328125 C-54.3028125 71.8128125 -53.9728125 37.4928125 -53.6328125 2.1328125 C-43.0728125 2.1328125 -32.5128125 2.1328125 -21.6328125 2.1328125 C-21.6328125 7.0828125 -21.6328125 12.0328125 -21.6328125 17.1328125 C-20.9728125 17.1328125 -20.3128125 17.1328125 -19.6328125 17.1328125 C-19.5709375 16.4521875 -19.5090625 15.7715625 -19.4453125 15.0703125 C-17.95442367 9.68017596 -14.9199488 6.11103609 -10.5078125 2.7578125 C-6.81732666 0.67188572 -4.16914483 0.00576417 0 0 Z " fill="#BD6116" transform="translate(460.6328125,440.8671875)"/>
<path d="M0 0 C10.56 0 21.12 0 32 0 C33.93006245 1.93006245 33.12683226 4.82723129 33.13552856 7.39598083 C33.13350433 8.31653763 33.1314801 9.23709442 33.12939453 10.18554688 C33.13114685 11.14969009 33.13289917 12.11383331 33.13470459 13.10719299 C33.13912493 16.31106336 33.13618447 19.51487902 33.1328125 22.71875 C33.13348549 24.93452973 33.13445547 27.15030939 33.13571167 29.36608887 C33.13718889 34.01669007 33.13503331 38.66727211 33.13037109 43.31787109 C33.1246738 49.29382604 33.12795267 55.26973609 33.13394356 61.24568939 C33.13754852 65.82314394 33.13641088 70.40058775 33.13381577 74.9780426 C33.13314632 77.18217474 33.13397554 79.38630783 33.13629532 81.59043884 C33.13882078 84.66513672 33.13498275 87.73976078 33.12939453 90.81445312 C33.13141876 91.73500992 33.13344299 92.65556671 33.13552856 93.60401917 C33.11426228 99.88573772 33.11426228 99.88573772 32 101 C21.44 101 10.88 101 0 101 C0 67.67 0 34.34 0 0 Z " fill="#BD6015" transform="translate(561,613)"/>
<path d="M0 0 C6.63305377 3.94955691 10.977932 8.02796948 13.625 15.3125 C14.13515157 18.46148341 14.1516842 21.50381671 14.0625 24.6875 C14.04783691 25.52313477 14.03317383 26.35876953 14.01806641 27.21972656 C13.75377107 35.86235251 12.6070369 43.38755762 6.4140625 49.83984375 C1.01586437 54.28333872 -4.88027179 56.03961728 -11.828125 55.68359375 C-20.06195259 54.48387961 -25.03410062 51.47327152 -30 44.82421875 C-34.8451806 35.97350532 -34.76293277 24.48064836 -32.25 14.875 C-30.00612552 8.60258807 -26.55883192 3.26640006 -20.75 -0.1875 C-14.231234 -2.98482488 -6.43260252 -3.01913337 0 0 Z " fill="#FDFCF7" transform="translate(344.375,468.6875)"/>
<path d="M0 0 C4.764375 -0.061875 9.52875 -0.12375 14.4375 -0.1875 C15.9217749 -0.21481201 17.4060498 -0.24212402 18.93530273 -0.27026367 C27.58161186 -0.32444511 35.02521945 -0.21365236 41.9375 5.375 C46.87211472 11.65541874 46.73833661 18.29759955 46 26 C44.46914906 31.73448487 42.17201577 35.84633185 37 39 C32.75076481 41.10403159 29.22552581 41.23287272 24.51171875 41.1953125 C23.22483154 41.19031738 21.93794434 41.18532227 20.61206055 41.18017578 C18.98695557 41.16196777 17.36185059 41.14375977 15.6875 41.125 C7.9221875 41.063125 7.9221875 41.063125 0 41 C0 27.47 0 13.94 0 0 Z " fill="#FEFDF9" transform="translate(191,433)"/>
<path d="M0 0 C4.16933693 1.23613507 6.55293964 3.49562421 9.4375 6.75 C11.71056501 11.47797523 11.94332447 15.30960011 10.234375 20.18359375 C8.46409114 24.01218385 6.80274599 26.91462317 3 29 C-2.71790581 30.9059686 -10.43416846 31.41051377 -16.11328125 29.1640625 C-20.87014981 25.5011508 -23.43156438 19.72849097 -24.625 14 C-23.52537196 8.72178543 -20.03859442 4.96242716 -16.22265625 1.2890625 C-11.43071766 -1.49009345 -5.33837584 -0.5417508 0 0 Z " fill="#BC6016" transform="translate(583,575)"/>
<path d="M0 0 C0.99 0.495 0.99 0.495 2 1 C2 45.55 2 90.1 2 136 C28.07 136 54.14 136 81 136 C81 128.08 81 120.16 81 112 C77.72578125 112.02320313 74.4515625 112.04640625 71.078125 112.0703125 C67.90755603 112.08590928 64.73699132 112.09805389 61.56640625 112.10986328 C59.36261075 112.11992183 57.1588286 112.13357026 54.95507812 112.15087891 C51.78772691 112.1751334 48.62055213 112.1864846 45.453125 112.1953125 C44.46757629 112.20563507 43.48202759 112.21595764 42.46661377 112.22659302 C41.5459613 112.22674408 40.62530884 112.22689514 39.67675781 112.22705078 C38.46430389 112.23371262 38.46430389 112.23371262 37.22735596 112.24050903 C35 112 35 112 31 110 C31 74.36 31 38.72 31 2 C31.33 2 31.66 2 32 2 C32.33 37.31 32.66 72.62 33 109 C57.75 109.495 57.75 109.495 83 110 C83.020625 114.434375 83.04125 118.86875 83.0625 123.4375 C83.071604 124.83798584 83.08070801 126.23847168 83.09008789 127.68139648 C83.09258545 128.77524658 83.09508301 129.86909668 83.09765625 130.99609375 C83.10289307 132.12200928 83.10812988 133.2479248 83.11352539 134.40795898 C83 137 83 137 82 138 C79.44406185 138.09506198 76.91535694 138.12555454 74.35913086 138.11352539 C73.5462111 138.11364593 72.73329134 138.11376646 71.89573765 138.11389065 C69.25207896 138.11314147 66.6084899 138.10551303 63.96484375 138.09765625 C62.33760614 138.09618685 60.71036806 138.09516613 59.08312988 138.09460449 C53.0345794 138.08935143 46.98603903 138.07539035 40.9375 138.0625 C27.428125 138.041875 13.91875 138.02125 0 138 C0 92.46 0 46.92 0 0 Z " fill="#B34A06" transform="translate(464,576)"/>
<path d="M0 0 C1.06226807 0.01244751 1.06226807 0.01244751 2.14599609 0.02514648 C9.88955199 0.27577298 14.30968541 2.26444524 19.5625 7.8125 C22.48772195 11.17610671 22.29296756 12.44530538 23.125 17.4375 C7.945 17.4375 -7.235 17.4375 -22.875 17.4375 C-20.59702166 10.60356498 -20.59702166 10.60356498 -17.625 7.25 C-17.06296875 6.59644531 -16.5009375 5.94289063 -15.921875 5.26953125 C-11.07799869 0.93407707 -6.35415226 -0.09545509 0 0 Z " fill="#FDFCF8" transform="translate(648.875,464.5625)"/>
<path d="M0 0 C11.55 0 23.1 0 35 0 C35 46.86 35 93.72 35 142 C23.78 142 12.56 142 1 142 C1 141.67 1 141.34 1 141 C16.345 140.505 16.345 140.505 32 140 C31.99476318 135.99721924 31.98952637 131.99443848 31.98413086 127.87036133 C31.96757589 114.65888366 31.9564702 101.44740615 31.94818783 88.23592091 C31.94303175 80.22425114 31.93600213 72.2125912 31.92456055 64.20092773 C31.91459272 57.21789359 31.90814156 50.23486657 31.90591151 43.25182551 C31.90460797 39.55444405 31.90154466 35.85708296 31.89426994 32.15970802 C31.88621441 28.03199994 31.88601022 23.90432725 31.88647461 19.77661133 C31.88287933 18.55093948 31.87928406 17.32526764 31.87557983 16.06245422 C31.8769545 14.93649841 31.87832916 13.8105426 31.87974548 12.65046692 C31.87882369 11.67428815 31.8779019 10.69810938 31.87695217 9.69234943 C32 7 32 7 33 2 C22.77 2 12.54 2 2 2 C2 44.57 2 87.14 2 131 C1.67 131 1.34 131 1 131 C0.67 87.77 0.34 44.54 0 0 Z " fill="#B04305" transform="translate(718,405)"/>
<path d="M0 0 C10.56 0 21.12 0 32 0 C32 0.33 32 0.66 32 1 C22.1 1.33 12.2 1.66 2 2 C2 34.01 2 66.02 2 99 C10.91 99 19.82 99 29 99 C30.485 99.99 30.485 99.99 32 101 C21.44 101 10.88 101 0 101 C0 67.67 0 34.34 0 0 Z " fill="#B85407" transform="translate(561,613)"/>
<path d="M0 0 C0.33 0 0.66 0 1 0 C1.33 4.29 1.66 8.58 2 13 C2.33 13 2.66 13 3 13 C3 39.73 3 66.46 3 94 C13.23 94 23.46 94 34 94 C34 94.66 34 95.32 34 96 C22.45 96 10.9 96 -1 96 C-0.67 64.32 -0.34 32.64 0 0 Z " fill="#C27425" transform="translate(407,451)"/>
<path d="M0 0 C8.91 0 17.82 0 27 0 C26.67 33.99 26.34 67.98 26 103 C17.09 103 8.18 103 -1 103 C-1 100.03 -1 97.06 -1 94 C-0.67 94 -0.34 94 0 94 C0 96.64 0 99.28 0 102 C8.25 102 16.5 102 25 102 C25 69 25 36 25 2 C17.41 2 9.82 2 2 2 C2 4.64 2 7.28 2 10 C1.34 9.67 0.68 9.34 0 9 C0 6.03 0 3.06 0 0 Z " fill="#B04302" transform="translate(363,443)"/>
<path d="M0 0 C10.56 0 21.12 0 32 0 C32 13 32 13 30 16 C30 11.38 30 6.76 30 2 C20.76 2 11.52 2 2 2 C2 25.76 2 49.52 2 74 C1.67 74 1.34 74 1 74 C0.67 49.58 0.34 25.16 0 0 Z " fill="#AD3701" transform="translate(407,443)"/>
<path d="M0 0 C1.30469238 -0.01933594 1.30469238 -0.01933594 2.63574219 -0.0390625 C4.77932283 -0.04247449 6.92251478 0.0633514 9.0625 0.1875 C11.0625 2.1875 11.0625 2.1875 11.30541992 4.56323242 C11.30131104 5.54654541 11.29720215 6.5298584 11.29296875 7.54296875 C11.29167969 8.63432129 11.29039062 9.72567383 11.2890625 10.85009766 C11.27617188 12.01331543 11.26328125 13.1765332 11.25 14.375 C11.24355469 15.54853027 11.23710938 16.72206055 11.23046875 17.93115234 C11.15589845 26.38206438 10.84021364 34.77152734 10.0625 43.1875 C9.7325 43.1875 9.4025 43.1875 9.0625 43.1875 C9.0625 29.9875 9.0625 16.7875 9.0625 3.1875 C-3.1475 3.1875 -15.3575 3.1875 -27.9375 3.1875 C-27.9375 2.5275 -27.9375 1.8675 -27.9375 1.1875 C-18.62726839 0.51214641 -9.33601804 0.06787363 0 0 Z " fill="#B75511" transform="translate(801.9375,403.8125)"/>
<path d="M0 0 C7.59 0 15.18 0 23 0 C23.33 8.91 23.66 17.82 24 27 C16.08 27 8.16 27 0 27 C0 26.34 0 25.68 0 25 C7.26 25 14.52 25 22 25 C21.67 23.68 21.34 22.36 21 21 C20.92133041 19.41307361 20.89215886 17.82321751 20.90234375 16.234375 C20.90484131 15.43225586 20.90733887 14.63013672 20.90991211 13.80371094 C20.91901611 12.79598633 20.92812012 11.78826172 20.9375 10.75 C20.958125 7.5325 20.97875 4.315 21 1 C14.07 1 7.14 1 0 1 C0 0.67 0 0.34 0 0 Z " fill="#B14805" transform="translate(731,616)"/>
<path d="M0 0 C8.25 0 16.5 0 25 0 C25.0309375 5.2284375 25.0309375 5.2284375 25.0625 10.5625 C25.071604 11.64732666 25.08070801 12.73215332 25.09008789 13.84985352 C25.10481337 19.01374735 24.90599883 23.91356563 24 29 C23.67 29 23.34 29 23 29 C23 20.09 23 11.18 23 2 C15.74 2 8.48 2 1 2 C0.67 2.99 0.34 3.98 0 5 C0 3.35 0 1.7 0 0 Z " fill="#B44B07" transform="translate(706,586)"/>
<path d="M0 0 C10.56 0 21.12 0 32 0 C32 13 32 13 30 16 C30 11.38 30 6.76 30 2 C28.02 2.020625 26.04 2.04125 24 2.0625 C15.97064582 2.07070997 8.00538921 1.58221012 0 1 C0 0.67 0 0.34 0 0 Z " fill="#B34E07" transform="translate(407,443)"/>
<path d="M0 0 C2.04119788 1.61594832 4.04072937 3.2856382 6 5 C6 5.66 6 6.32 6 7 C-7.70683222 7.12385692 -21.31702148 6.8230363 -35 6 C-35 5.67 -35 5.34 -35 5 C-22.79 4.67 -10.58 4.34 2 4 C1.34 2.68 0.68 1.36 0 0 Z " fill="#AD3902" transform="translate(888,398)"/>
<path d="M0 0 C2.84780721 1.03311618 4.56894275 2.1477659 7 4 C6.67 4.99 6.34 5.98 6 7 C5.31808594 6.35160156 4.63617187 5.70320312 3.93359375 5.03515625 C-1.20406909 1.47094541 -6.98547407 2.1609278 -13 3 C-15.81209709 4.36818368 -16.9188681 5.57201278 -19 8 C-19.66 8.66 -20.32 9.32 -21 10 C-21.33 9.34 -21.66 8.68 -22 8 C-15.42196819 -0.1780936 -10.5647134 -1.02085995 0 0 Z " fill="#AF450A" transform="translate(583,575)"/>
<path d="M0 0 C0.8971875 0.309375 0.8971875 0.309375 1.8125 0.625 C1.16023437 1.1096875 0.50796875 1.594375 -0.1640625 2.09375 C-5.29652255 6.03015004 -9.45259264 9.74665167 -13.03125 15.15625 C-13.60359375 15.88328125 -13.60359375 15.88328125 -14.1875 16.625 C-14.8475 16.625 -15.5075 16.625 -16.1875 16.625 C-16.5175 17.615 -16.8475 18.605 -17.1875 19.625 C-17.5175 18.635 -17.8475 17.645 -18.1875 16.625 C-15.4296157 11.50956944 -6.39852893 -1.09689067 0 0 Z " fill="#B85711" transform="translate(619.1875,448.375)"/>
<path d="M0 0 C0.99 0 1.98 0 3 0 C3.14522934 3.91627663 3.23404757 7.83186153 3.3125 11.75 C3.3753418 13.41675781 3.3753418 13.41675781 3.43945312 15.1171875 C3.56294872 23.31729502 3.56294872 23.31729502 0.66796875 26.828125 C-2 28 -2 28 -5 27 C-4.1850708 26.61932373 -3.3701416 26.23864746 -2.53051758 25.84643555 C0.23718873 24.25352039 0.23718873 24.25352039 0.56762695 21.45629883 C0.54144287 20.46654053 0.51525879 19.47678223 0.48828125 18.45703125 C0.47216797 17.38388672 0.45605469 16.31074219 0.43945312 15.20507812 C0.37661133 13.52575195 0.37661133 13.52575195 0.3125 11.8125 C0.28994141 10.68134766 0.26738281 9.55019531 0.24414062 8.38476562 C0.18514811 5.58852024 0.1028824 2.79491903 0 0 Z " fill="#B6570A" transform="translate(692,513)"/>
<path d="M0 0 C3.875 0.875 3.875 0.875 5 2 C5.08700342 3.63472882 5.10701063 5.27314055 5.09765625 6.91015625 C5.09443359 7.89951172 5.09121094 8.88886719 5.08789062 9.90820312 C5.07951172 10.94912109 5.07113281 11.99003906 5.0625 13.0625 C5.05798828 14.10728516 5.05347656 15.15207031 5.04882812 16.22851562 C5.03699913 18.8190666 5.02051689 21.40950559 5 24 C3.125 23.6875 3.125 23.6875 1 23 C0.34 22.01 -0.32 21.02 -1 20 C0.32 20.33 1.64 20.66 3 21 C2.89037184 17.8742604 2.75968759 14.74975219 2.625 11.625 C2.57859375 10.29082031 2.57859375 10.29082031 2.53125 8.9296875 C2.49257813 8.07890625 2.45390625 7.228125 2.4140625 6.3515625 C2.3826416 5.56604004 2.3512207 4.78051758 2.31884766 3.97119141 C2.1600535 1.76997061 2.1600535 1.76997061 0 0 Z " fill="#B24703" transform="translate(675,577)"/>
<path d="M0 0 C9.6006366 1.49119835 18.32472961 9.42463908 24 17 C23.7734375 19.3046875 23.7734375 19.3046875 23 21 C22.68289063 20.5153125 22.36578125 20.030625 22.0390625 19.53125 C16.34689478 11.35465549 8.78415829 5.58303911 0 1 C0 0.67 0 0.34 0 0 Z " fill="#B34A08" transform="translate(672,446)"/>
<path d="M0 0 C0.33 0 0.66 0 1 0 C1.13277344 0.68707031 1.26554688 1.37414062 1.40234375 2.08203125 C1.57894531 2.98308594 1.75554688 3.88414062 1.9375 4.8125 C2.11152344 5.70582031 2.28554688 6.59914063 2.46484375 7.51953125 C2.97741153 10.11397171 2.97741153 10.11397171 4 13 C7.51190809 14.22969878 7.51190809 14.22969878 11 15 C11 15.33 11 15.66 11 16 C14.63 16.33 18.26 16.66 22 17 C22 17.33 22 17.66 22 18 C8.04190371 18.86043059 8.04190371 18.86043059 4.3125 15.875 C0.77196363 11.47325208 -1.15361846 8.90486894 -0.6875 3.125 C-0.460625 2.09375 -0.23375 1.0625 0 0 Z " fill="#BF691C" transform="translate(561,587)"/>
<path d="M0 0 C3.10846227 2.8844901 5.22228692 5.79405838 7.375 9.4375 C10.15441591 13.92778748 12.7042794 16.96156348 17 20 C16.01 20.33 15.02 20.66 14 21 C8.16706284 15.70002156 3.37210003 10.19125878 0 3 C0 2.01 0 1.02 0 0 Z " fill="#B6510B" transform="translate(283,519)"/>
<path d="M0 0 C0.66 0 1.32 0 2 0 C2 7.59 2 15.18 2 23 C1.34 23 0.68 23 0 23 C-0.19588601 19.3545658 -0.38030536 15.7086421 -0.5625 12.0625 C-0.61857422 11.02158203 -0.67464844 9.98066406 -0.73242188 8.90820312 C-0.78076172 7.91884766 -0.82910156 6.92949219 -0.87890625 5.91015625 C-0.9260376 4.99371338 -0.97316895 4.07727051 -1.02172852 3.13305664 C-1 1 -1 1 0 0 Z " fill="#B55307" transform="translate(752,688)"/>
<path d="M0 0 C2.54074441 0.98747419 3.78701723 1.66409198 5.265625 3.99609375 C7.80867255 10.30325534 9.0168032 16.18978322 8 23 C7.34 23.66 6.68 24.32 6 25 C5.96132812 23.515 5.96132812 23.515 5.921875 22 C5.63283607 14.48784029 5.08624762 8.51245714 1 2 C0.67 1.34 0.34 0.68 0 0 Z " fill="#B54D05" transform="translate(231,436)"/>
<path d="M0 0 C6.42787214 5.06023977 15.76141341 12.4897115 17 21 C10.96831726 15.16288767 4.70604114 8.96913736 0 2 C0 1.34 0 0.68 0 0 Z " fill="#B6500C" transform="translate(849,353)"/>
<path d="M0 0 C0.66 0 1.32 0 2 0 C2.33 0.66 2.66 1.32 3 2 C4.32 1.34 5.64 0.68 7 0 C3.10689944 5.40010722 -1.05980055 8.07519591 -7 11 C-5.68747786 8.25342589 -4.24706499 5.74276346 -2.5 3.25 C-2.0771875 2.63640625 -1.654375 2.0228125 -1.21875 1.390625 C-0.8165625 0.93171875 -0.414375 0.4728125 0 0 Z " fill="#AC410B" transform="translate(778,585)"/>
<path d="M0 0 C0.66 0.33 1.32 0.66 2 1 C-0.17361331 5.48307745 -3.25766147 8.13630312 -6.9921875 11.28515625 C-9.47143676 13.40264735 -11.73146153 15.66056971 -14 18 C-14 15 -14 15 -12.71484375 13.45703125 C-11.83505859 12.64298828 -11.83505859 12.64298828 -10.9375 11.8125 C-7.03279346 8.08310681 -3.50579513 4.10252621 0 0 Z " fill="#AC3F05" transform="translate(795,386)"/>
<path d="M0 0 C2.63427428 1.31713714 2.96263434 2.69056527 4.25 5.3125 C6.5857707 9.6911985 8.65724141 11.67712913 13 14 C12.34 14.66 11.68 15.32 11 16 C2.14089661 8.88746569 2.14089661 8.88746569 0 3 C0 2.01 0 1.02 0 0 Z " fill="#B5510D" transform="translate(311,507)"/>
<path d="M0 0 C0.66 0 1.32 0 2 0 C2.64715133 2.0829243 3.29267166 4.16635539 3.9375 6.25 C4.47697266 7.99023438 4.47697266 7.99023438 5.02734375 9.765625 C5.75066637 12.17089058 6.42542411 14.55654044 7 17 C6.01 16.67 5.02 16.34 4 16 C2.83203125 13.41796875 2.83203125 13.41796875 1.8125 10.1875 C1.46832031 9.12917969 1.12414062 8.07085938 0.76953125 6.98046875 C0 4 0 4 0 0 Z " fill="#B85209" transform="translate(483,504)"/>
<path d="M0 0 C0.33 0.99 0.66 1.98 1 3 C-1.67031284 5.67733998 -3.03721441 6.00280229 -6.890625 6.29296875 C-8.34404009 6.27314945 -9.79731167 6.23754845 -11.25 6.1875 C-11.99507812 6.17396484 -12.74015625 6.16042969 -13.5078125 6.14648438 C-15.33885416 6.11127204 -17.16952169 6.05746851 -19 6 C-19 5.67 -19 5.34 -19 5 C-17.87980469 4.86722656 -16.75960937 4.73445312 -15.60546875 4.59765625 C-14.13279271 4.41943431 -12.66013753 4.24103989 -11.1875 4.0625 C-10.44951172 3.97548828 -9.71152344 3.88847656 -8.95117188 3.79882812 C-5.83266879 3.41783454 -2.98891878 2.99630626 0 2 C0 1.34 0 0.68 0 0 Z " fill="#B04304" transform="translate(589,598)"/>
<path d="M0 0 C0.66 0 1.32 0 2 0 C3.40234375 1.828125 3.40234375 1.828125 4.9375 4.25 C6.8595412 7.25841232 8.82429785 10.16833989 11 13 C10.01 13 9.02 13 8 13 C6.2109375 11.171875 6.2109375 11.171875 4.375 8.75 C3.76398437 7.96109375 3.15296875 7.1721875 2.5234375 6.359375 C1.09983007 4.15460862 0.43474299 2.56145868 0 0 Z " fill="#B7530E" transform="translate(599,520)"/>
<path d="M0 0 C3.78903708 0.25260247 5.54186593 2.27849443 8 5 C7.67 5.99 7.34 6.98 7 8 C6.38125 7.195625 5.7625 6.39125 5.125 5.5625 C3.25835959 2.96125481 3.25835959 2.96125481 1 2 C1 2.66 1 3.32 1 4 C-1.5 5.625 -1.5 5.625 -4 7 C-2.92598892 4.08482708 -2.22189824 2.22189824 0 0 Z " fill="#B1490D" transform="translate(835,339)"/>
<path d="M0 0 C0.66 0 1.32 0 2 0 C0.58163643 5.1576857 -1.67391575 9.79975258 -5 14 C-5.66 14 -6.32 14 -7 14 C-5.23570801 9.02790438 -2.6060834 4.56561939 0 0 Z " fill="#B4500A" transform="translate(581,453)"/>
<path d="M0 0 C0.66 0.33 1.32 0.66 2 1 C-1.3 4.96 -4.6 8.92 -8 13 C-8.66 12.34 -9.32 11.68 -10 11 C-6.7 7.37 -3.4 3.74 0 0 Z " fill="#B44F0B" transform="translate(820,357)"/>
<path d="M0 0 C-1 2 -1 2 -2.85546875 2.8515625 C-7.37848126 4.3516571 -11.16744753 5.37173481 -16 5 C-11.1356474 1.75709826 -5.95319301 -0.55811184 0 0 Z " fill="#B54F08" transform="translate(685,542)"/>
<path d="M0 0 C3.10190545 4.65285818 4.33846504 9.41532676 4 15 C0.82173632 11.53280326 -0.43244975 7.60661622 -1 3 C-0.67 2.01 -0.34 1.02 0 0 Z " fill="#BF691D" transform="translate(700,472)"/>
<path d="M0 0 C5.15464734 0.48324819 8.81550319 3.18610761 13 6 C12.01 6.66 11.02 7.32 10 8 C10 7.34 10 6.68 10 6 C9.46375 5.9175 8.9275 5.835 8.375 5.75 C5.14748846 4.73078583 2.72305958 2.98040697 0 1 C0 0.67 0 0.34 0 0 Z " fill="#B7550D" transform="translate(243,411)"/>
<path d="M0 0 C0.66 0.33 1.32 0.66 2 1 C-0.99424358 4.84974175 -3.4435978 7.96160954 -8 10 C-8.99 9.67 -9.98 9.34 -11 9 C-10.45730469 8.60167969 -9.91460937 8.20335937 -9.35546875 7.79296875 C-8.64003906 7.26316406 -7.92460937 6.73335937 -7.1875 6.1875 C-6.47980469 5.66542969 -5.77210938 5.14335938 -5.04296875 4.60546875 C-3.21468607 3.16871123 -1.60103312 1.68184237 0 0 Z " fill="#B6520A" transform="translate(359,535)"/>
<path d="M0 0 C0.33 0 0.66 0 1 0 C1.33 4.95 1.66 9.9 2 15 C-2 14 -2 14 -4 11 C-2.68 11.33 -1.36 11.66 0 12 C0 8.04 0 4.08 0 0 Z " fill="#B24E0D" transform="translate(678,586)"/>
<path d="M0 0 C3.25524265 3.02272532 5.61820737 6.25718301 8 10 C7.34 10.66 6.68 11.32 6 12 C4.99466333 10.37829621 3.99588093 8.75252763 3 7.125 C2.443125 6.22007812 1.88625 5.31515625 1.3125 4.3828125 C0 2 0 2 0 0 Z " fill="#B85612" transform="translate(624,507)"/>
<path d="M0 0 C0.66 0.33 1.32 0.66 2 1 C-0.97 4.3 -3.94 7.6 -7 11 C-7.66 10.67 -8.32 10.34 -9 10 C-6.03 6.7 -3.06 3.4 0 0 Z " fill="#B24C0A" transform="translate(807,372)"/>
<path d="M0 0 C0.99 0.33 1.98 0.66 3 1 C2.236875 1.515625 1.47375 2.03125 0.6875 2.5625 C-2.61575607 5.55847644 -3.48625726 7.85712514 -5 12 C-5.33 12 -5.66 12 -6 12 C-5.73781251 7.5428126 -5.42288711 5.48477302 -2.4375 2.0625 C-1.633125 1.381875 -0.82875 0.70125 0 0 Z " fill="#B44D0C" transform="translate(449,445)"/>
<path d="M0 0 C0 4.41236026 -2.0697293 5.78384923 -5 9 C-5.33 9 -5.66 9 -6 9 C-6.3125 6.6875 -6.3125 6.6875 -6 4 C-3.5625 2.25 -3.5625 2.25 -1 1 C-0.67 0.67 -0.34 0.34 0 0 Z " fill="#B44E0D" transform="translate(794,574)"/>
<path d="M0 0 C3.33523252 1.38009621 5.18607951 2.84950652 7 6 C6.67 6.99 6.34 7.98 6 9 C4.99406757 7.8803014 3.9954151 6.7540588 3 5.625 C2.443125 4.99851562 1.88625 4.37203125 1.3125 3.7265625 C0 2 0 2 0 0 Z " fill="#B54F09" transform="translate(665,468)"/>
<path d="M0 0 C0 0.66 0 1.32 0 2 C-3.37097383 3.49821059 -5.20442119 4 -9 4 C-9 3.34 -9 2.68 -9 2 C-5.62902617 0.50178941 -3.79557881 0 0 0 Z " fill="#B95710" transform="translate(522,444)"/>
<path d="M0 0 C0.66 0 1.32 0 2 0 C0.55746343 3.36591866 -1.33264727 5.51047079 -4 8 C-4.33 7.34 -4.66 6.68 -5 6 C-3.38405168 3.95880212 -1.7143618 1.95927063 0 0 Z " fill="#B5540F" transform="translate(566,577)"/>
<path d="M0 0 C0.33 0 0.66 0 1 0 C1.25 6.625 1.25 6.625 -1 10 C-1.66 10 -2.32 10 -3 10 C-2.01 6.7 -1.02 3.4 0 0 Z " fill="#C16D22" transform="translate(702,598)"/>
<path d="M0 0 C2.31 1.98 4.62 3.96 7 6 C6.01 6.33 5.02 6.66 4 7 C2 5.1875 2 5.1875 0 3 C0 2.01 0 1.02 0 0 Z " fill="#B7540E" transform="translate(495,528)"/>
<path d="M0 0 C0.99 0.33 1.98 0.66 3 1 C2.01 1.33 1.02 1.66 0 2 C-0.33 2.99 -0.66 3.98 -1 5 C-2.65 4.67 -4.3 4.34 -6 4 C-4.03617993 2.49440461 -2.21736634 1.10868317 0 0 Z " fill="#B7550E" transform="translate(349,519)"/>
<path d="M0 0 C0.99 0.33 1.98 0.66 3 1 C0.03 3.475 0.03 3.475 -3 6 C-3.33 5.01 -3.66 4.02 -4 3 C-2.1875 1.4375 -2.1875 1.4375 0 0 Z " fill="#B85612" transform="translate(502,453)"/>
<path d="M0 0 C0.66 0 1.32 0 2 0 C4.09230769 4.43076923 4.09230769 4.43076923 3.625 7.3125 C3.41875 7.869375 3.2125 8.42625 3 9 C0.23776722 6.23776722 0.42143709 3.79293383 0 0 Z " fill="#BF6A1C" transform="translate(266,433)"/>
<path d="M0 0 C0.66 0.33 1.32 0.66 2 1 C0.8125 3.4375 0.8125 3.4375 -1 6 C-3.6875 6.8125 -3.6875 6.8125 -6 7 C-4.02 4.69 -2.04 2.38 0 0 Z " fill="#B54B0C" transform="translate(795,386)"/>
<path d="M0 0 C0.33 0 0.66 0 1 0 C0.4140625 6.15234375 0.4140625 6.15234375 0 8 C-0.99 8.495 -0.99 8.495 -2 9 C-1.125 1.125 -1.125 1.125 0 0 Z " fill="#B14A0E" transform="translate(792,551)"/>
<path d="M0 0 C0.33 0.99 0.66 1.98 1 3 C-0.8125 6.1875 -0.8125 6.1875 -3 9 C-3.66 9 -4.32 9 -5 9 C-3.50163895 5.88801935 -1.80066242 2.9465385 0 0 Z " fill="#B34C08" transform="translate(264,477)"/>
<path d="M0 0 C3.73487777 0.4979837 5.81237635 0.87491756 9 3 C8.67 3.66 8.34 4.32 8 5 C5.36 3.68 2.72 2.36 0 1 C0 0.67 0 0.34 0 0 Z " fill="#B44F0A" transform="translate(347,446)"/>
</svg>
